{"asset":{"version":"2.0","generator":"THREE.GLTFExporter"},"scenes":[{"nodes":[0,1],"name":"Scene"}],"scene":0,"nodes":[{"name":"CombinedMesh","extras":{"components":{"shadow":{"castShadow":true,"receiveShadow":true}}},"mesh":0},{"name":"CombinedMesh","extras":{"components":{"shadow":{"castShadow":true,"receiveShadow":true}}},"mesh":1}],"bufferViews":[{"buffer":0,"byteOffset":0,"byteLength":8688,"target":34962,"byteStride":12},{"buffer":0,"byteOffset":8688,"byteLength":8688,"target":34962,"byteStride":12},{"buffer":0,"byteOffset":17376,"byteLength":5792,"target":34962,"byteStride":8},{"buffer":0,"byteOffset":23168,"byteLength":5792,"target":34962,"byteStride":8},{"buffer":0,"byteOffset":28960,"byteLength":3048,"target":34963},{"buffer":0,"byteOffset":32008,"byteLength":1224,"target":34962,"byteStride":12},{"buffer":0,"byteOffset":33232,"byteLength":1224,"target":34962,"byteStride":12},{"buffer":0,"byteOffset":34456,"byteLength":816,"target":34962,"byteStride":8},{"buffer":0,"byteOffset":35272,"byteLength":816,"target":34962,"byteStride":8},{"buffer":0,"byteOffset":36088,"byteLength":576,"target":34963}],"buffers":[{"byteLength":36664,"uri":"688c2deb28.bin"}],"accessors":[{"bufferView":0,"componentType":5126,"count":724,"max":[1,1,1],"min":[-1,-1,-1],"type":"VEC3"},{"bufferView":1,"componentType":5126,"count":724,"max":[6.112806797027588,5.857179164886475,2],"min":[-2.121812582015991,-0.25,-12],"type":"VEC3"},{"bufferView":2,"componentType":5126,"count":724,"max":[0.995975136756897,0.9983997941017151],"min":[0.0024772081524133682,0.004678547382354736],"type":"VEC2"},{"bufferView":3,"componentType":5126,"count":724,"max":[0.995975136756897,0.9983997941017151],"min":[0.0024772081524133682,0.004678547382354736],"type":"VEC2"},{"bufferView":4,"componentType":5123,"count":1524,"max":[723],"min":[0],"type":"SCALAR"},{"bufferView":5,"componentType":5126,"count":102,"max":[1,0,1],"min":[-1,0,-1],"type":"VEC3"},{"bufferView":6,"componentType":5126,"count":102,"max":[5.675000190734863,4.375,0.5],"min":[-1.684000015258789,-0.125,-4.054999828338623],"type":"VEC3"},{"bufferView":7,"componentType":5126,"count":102,"max":[0.29512062668800354,0.9983994364738464],"min":[0.0024772081524133682,0.5765247941017151],"type":"VEC2"},{"bufferView":8,"componentType":5126,"count":102,"max":[0.29512062668800354,0.9983994364738464],"min":[0.0024772081524133682,0.5765247941017151],"type":"VEC2"},{"bufferView":9,"componentType":5123,"count":288,"max":[101],"min":[0],"type":"SCALAR"}],"materials":[{"pbrMetallicRoughness":{"metallicFactor":0,"roughnessFactor":1,"baseColorTexture":{"index":0}},"occlusionTexture":{"index":1},"extensions":{"MOZ_alt_materials":{"KHR_materials_unlit":2}}},{"pbrMetallicRoughness":{"metallicFactor":0,"roughnessFactor":1,"baseColorTexture":{"index":2}},"occlusionTexture":{"index":3},"extensions":{"MOZ_alt_materials":{"KHR_materials_unlit":3}}},{"pbrMetallicRoughness":{"baseColorTexture":{"index":4},"roughnessFactor":0.9,"metallicFactor":0},"extensions":{"KHR_materials_unlit":{}}},{"pbrMetallicRoughness":{"baseColorTexture":{"index":5},"roughnessFactor":0.9,"metallicFactor":0},"extensions":{"KHR_materials_unlit":{}}}],"textures":[{"sampler":0,"source":0},{"sampler":1,"source":1},{"sampler":2,"source":2},{"sampler":3,"source":1},{"source":3},{"source":4}],"samplers":[{"magFilter":9729,"minFilter":9987},{"magFilter":9729,"minFilter":9987},{"magFilter":9729,"minFilter":9987},{"magFilter":9729,"minFilter":9987}],"images":[{"mimeType":"image/jpeg","uri":"455e3844ea.jpg"},{"mimeType":"image/jpeg","uri":"16da0307f4.jpg"},{"mimeType":"image/jpeg","uri":"93a6e3576b.jpg"},{"uri":"53b851c961.jpg"},{"uri":"f94377c0fd.jpg"}],"meshes":[{"primitives":[{"mode":4,"attributes":{"NORMAL":0,"POSITION":1,"TEXCOORD_0":2,"TEXCOORD_1":3},"indices":4,"material":0}]},{"primitives":[{"mode":4,"attributes":{"NORMAL":5,"POSITION":6,"TEXCOORD_0":7,"TEXCOORD_1":8},"indices":9,"material":1}]}],"extensionsUsed":["MOZ_alt_materials","KHR_materials_unlit"]}
