{"asset":{"version":"2.0","generator":"THREE.GLTFExporter"},"scenes":[{"nodes":[0,1,2,3,14,17],"name":"test scultpure"}],"scene":0,"nodes":[{"rotation":[0.3535533905932738,0.6123724356957945,-0.3535533905932738,0.6123724356957946],"translation":[0,10,0],"name":"Sun","extensions":{"HUBS_components":{"directional-light":{"color":"white","intensity":1,"castShadow":true}}}},{"name":"Skybox","extensions":{"HUBS_components":{"skybox":{"turbidity":10,"rayleigh":2,"luminance":1,"mieCoefficient":0.005,"mieDirectionalG":0.8,"inclination":0,"azimuth":0.15,"distance":8000}}}},{"translation":[0,10,0],"name":"Ambient Light","extensions":{"HUBS_components":{"ambient-light":{"color":"white","intensity":1}}}},{"name":"Spawn Point","extensions":{"HUBS_components":{"spawn-point":{}}}},{"mesh":0},{"mesh":1},{"mesh":2},{"mesh":3},{"mesh":4},{"mesh":5},{"name":"ile_de_paque_-_CleanUp_-_LowPolyobjcleanermaterialmergergles","children":[4,5,6,7,8,9]},{"rotation":[-0.6948487184154334,0.1572828503201762,-0.1310925697038616,0.6893925612585184],"translation":[-1.8696653842926025,-20.263141632080078,-14.401351928710938],"scale":[0.999999985215786,1.0000000277532461,1.0000000059837622],"name":"RootNode_(model_correction_matrix)","children":[10]},{"rotation":[-0.7071067811865475,0,0,0.7071067811865476],"name":"RootNode_(gltf_orientation_matrix)","children":[11]},{"name":"OSG_Scene","children":[12]},{"scale":[0.5,0.5,0.5],"name":"scene.gltf","children":[13]},{"name":"mesh_0","mesh":6},{"name":"AuxScene","children":[15]},{"name":"Nav Mesh","extensions":{"HUBS_components":{"visible":{"visible":false},"nav-mesh":{},"heightfield":{}}},"children":[16]}],"bufferViews":[{"buffer":0,"byteOffset":0,"byteLength":1048544,"target":34962,"byteStride":16},{"buffer":0,"byteOffset":1048544,"byteLength":786408,"target":34962,"byteStride":12},{"buffer":0,"byteOffset":1834952,"byteLength":786408,"target":34962,"byteStride":12},{"buffer":0,"byteOffset":2621360,"byteLength":524272,"target":34962,"byteStride":8},{"buffer":0,"byteOffset":3145632,"byteLength":1225632,"target":34963},{"buffer":0,"byteOffset":4371264,"byteLength":1048512,"target":34962,"byteStride":16},{"buffer":0,"byteOffset":5419776,"byteLength":786384,"target":34962,"byteStride":12},{"buffer":0,"byteOffset":6206160,"byteLength":786384,"target":34962,"byteStride":12},{"buffer":0,"byteOffset":6992544,"byteLength":524256,"target":34962,"byteStride":8},{"buffer":0,"byteOffset":7516800,"byteLength":1109544,"target":34963},{"buffer":0,"byteOffset":8626344,"byteLength":1048512,"target":34962,"byteStride":16},{"buffer":0,"byteOffset":9674856,"byteLength":786384,"target":34962,"byteStride":12},{"buffer":0,"byteOffset":10461240,"byteLength":786384,"target":34962,"byteStride":12},{"buffer":0,"byteOffset":11247624,"byteLength":524256,"target":34962,"byteStride":8},{"buffer":0,"byteOffset":11771880,"byteLength":978528,"target":34963},{"buffer":0,"byteOffset":12750408,"byteLength":1048528,"target":34962,"byteStride":16},{"buffer":0,"byteOffset":13798936,"byteLength":786396,"target":34962,"byteStride":12},{"buffer":0,"byteOffset":14585332,"byteLength":786396,"target":34962,"byteStride":12},{"buffer":0,"byteOffset":15371728,"byteLength":524264,"target":34962,"byteStride":8},{"buffer":0,"byteOffset":15895992,"byteLength":1092672,"target":34963},{"buffer":0,"byteOffset":16988664,"byteLength":1048512,"target":34962,"byteStride":16},{"buffer":0,"byteOffset":18037176,"byteLength":786384,"target":34962,"byteStride":12},{"buffer":0,"byteOffset":18823560,"byteLength":786384,"target":34962,"byteStride":12},{"buffer":0,"byteOffset":19609944,"byteLength":524256,"target":34962,"byteStride":8},{"buffer":0,"byteOffset":20134200,"byteLength":949344,"target":34963},{"buffer":0,"byteOffset":21083544,"byteLength":772160,"target":34962,"byteStride":16},{"buffer":0,"byteOffset":21855704,"byteLength":579120,"target":34962,"byteStride":12},{"buffer":0,"byteOffset":22434824,"byteLength":579120,"target":34962,"byteStride":12},{"buffer":0,"byteOffset":23013944,"byteLength":386080,"target":34962,"byteStride":8},{"buffer":0,"byteOffset":23400024,"byteLength":644280,"target":34963},{"buffer":0,"byteOffset":24044304,"byteLength":5508,"target":34962,"byteStride":12},{"buffer":0,"byteOffset":24049812,"byteLength":2748,"target":34963}],"buffers":[{"byteLength":24052560,"uri":"scene.bin"}],"accessors":[{"bufferView":0,"componentType":5126,"count":65534,"max":[0.7686274647712708,0.7803921699523926,0.7843137383460999,1],"min":[0.054901961237192154,0.0470588244497776,0.03529411926865578,1],"type":"VEC4"},{"bufferView":1,"componentType":5126,"count":65534,"max":[0.9999913573265076,0.9999300241470337,0.9997497797012329],"min":[-0.9999493360519409,-0.9855722784996033,-0.999998152256012],"type":"VEC3"},{"bufferView":2,"componentType":5126,"count":65534,"max":[6.237457752227783,-4.969964981079102,10.77993392944336],"min":[-9.952559471130371,-24.92901611328125,-7.06479024887085],"type":"VEC3"},{"bufferView":3,"componentType":5126,"count":65534,"max":[0.9997559785842896,0.33667001128196716],"min":[0.00024399999529123306,0.00024399999529123306],"type":"VEC2"},{"bufferView":4,"componentType":5125,"count":306408,"max":[65533],"min":[0],"type":"SCALAR"},{"bufferView":5,"componentType":5126,"count":65532,"max":[0.7686274647712708,0.7803921699523926,0.7843137383460999,1],"min":[0.054901961237192154,0.0470588244497776,0.027450980618596077,1],"type":"VEC4"},{"bufferView":6,"componentType":5126,"count":65532,"max":[0.9999856948852539,0.9999338388442993,0.9999967813491821],"min":[-0.9999859929084778,-0.9989213943481445,-0.9999338388442993],"type":"VEC3"},{"bufferView":7,"componentType":5126,"count":65532,"max":[6.066492080688477,-1.3984708786010742,11.257085800170898],"min":[-11.551207542419434,-28.018165588378906,-6.566897392272949],"type":"VEC3"},{"bufferView":8,"componentType":5126,"count":65532,"max":[0.9997559785842896,0.3923340141773224],"min":[0.00024399999529123306,0.00024399999529123306],"type":"VEC2"},{"bufferView":9,"componentType":5125,"count":277386,"max":[65531],"min":[0],"type":"SCALAR"},{"bufferView":10,"componentType":5126,"count":65532,"max":[0.929411768913269,0.9411764740943909,0.9450980424880981,1],"min":[0.07058823853731155,0.06666667014360428,0.054901961237192154,1],"type":"VEC4"},{"bufferView":11,"componentType":5126,"count":65532,"max":[0.9999856948852539,0.9999715089797974,0.9999831318855286],"min":[-0.9999899864196777,-0.9987775087356567,-0.9996727705001831],"type":"VEC3"},{"bufferView":12,"componentType":5126,"count":65532,"max":[6.237457752227783,-2.232402801513672,11.708135604858398],"min":[-9.302510261535645,-31.194957733154297,-3.2637948989868164],"type":"VEC3"},{"bufferView":13,"componentType":5126,"count":65532,"max":[0.9997559785842896,0.3923180103302002],"min":[0.00024399999529123306,0.00024399999529123306],"type":"VEC2"},{"bufferView":14,"componentType":5125,"count":244632,"max":[65531],"min":[0],"type":"SCALAR"},{"bufferView":15,"componentType":5126,"count":65533,"max":[0.7882353067398071,0.800000011920929,0.8196078538894653,1],"min":[0.054901961237192154,0.054901961237192154,0.054901961237192154,1],"type":"VEC4"},{"bufferView":16,"componentType":5126,"count":65533,"max":[0.9999761581420898,0.9996978640556335,0.9999774098396301],"min":[-0.9999881982803345,-0.9999383091926575,-0.999960720539093],"type":"VEC3"},{"bufferView":17,"componentType":5126,"count":65533,"max":[6.039998531341553,-0.39881420135498047,10.632495880126953],"min":[-12.298624992370605,-26.48417854309082,-6.607839584350586],"type":"VEC3"},{"bufferView":18,"componentType":5126,"count":65533,"max":[0.9997559785842896,0.3562979996204376],"min":[0.00024399999529123306,0.00024399999529123306],"type":"VEC2"},{"bufferView":19,"componentType":5125,"count":273168,"max":[65532],"min":[0],"type":"SCALAR"},{"bufferView":20,"componentType":5126,"count":65532,"max":[0.9372549057006836,0.9411764740943909,0.9921568632125854,1],"min":[0.062745101749897,0.05882352963089943,0.0470588244497776,1],"type":"VEC4"},{"bufferView":21,"componentType":5126,"count":65532,"max":[0.9999992847442627,0.9998806715011597,0.9999406337738037],"min":[-0.9999607801437378,-0.9999932050704956,-0.999931275844574],"type":"VEC3"},{"bufferView":22,"componentType":5126,"count":65532,"max":[6.0865373611450195,-0.39040565490722656,11.770875930786133],"min":[-13.180136680603027,-32.97178268432617,-6.681736946105957],"type":"VEC3"},{"bufferView":23,"componentType":5126,"count":65532,"max":[0.9997559785842896,0.3532710075378418],"min":[0.00024399999529123306,0.00024399999529123306],"type":"VEC2"},{"bufferView":24,"componentType":5125,"count":237336,"max":[65531],"min":[0],"type":"SCALAR"},{"bufferView":25,"componentType":5126,"count":48260,"max":[0.8352941274642944,0.8313725590705872,0.8509804010391235,1],"min":[0.07058823853731155,0.07058823853731155,0.07058823853731155,1],"type":"VEC4"},{"bufferView":26,"componentType":5126,"count":48260,"max":[0.9998118877410889,0.9997828602790833,0.9995023608207703],"min":[-0.9999921917915344,-0.9999973177909851,-0.9995909929275513],"type":"VEC3"},{"bufferView":27,"componentType":5126,"count":48260,"max":[6.0865373611450195,-0.3838539123535156,10.564693450927734],"min":[-13.38970947265625,-31.838239669799805,-5.989436149597168],"type":"VEC3"},{"bufferView":28,"componentType":5126,"count":48260,"max":[0.9997559785842896,0.37084999680519104],"min":[0.00024399999529123306,0.00024399999529123306],"type":"VEC2"},{"bufferView":29,"componentType":5125,"count":161070,"max":[48259],"min":[0],"type":"SCALAR"},{"bufferView":30,"componentType":5126,"count":459,"max":[8.126225471496582,18.568180084228516,26.309635162353516],"min":[-14.129924774169922,-13.431822776794434,9.878920555114746],"type":"VEC3"},{"bufferView":31,"componentType":5123,"count":1374,"max":[458],"min":[0],"type":"SCALAR"}],"materials":[{"pbrMetallicRoughness":{"metallicFactor":0,"roughnessFactor":1,"baseColorTexture":{"index":0}},"doubleSided":true,"name":"ile_de_paque_-_CleanUp_-_LowPoly_Material_u1_v1"},{"pbrMetallicRoughness":{"metallicFactor":0,"roughnessFactor":1,"baseColorTexture":{"index":0}},"doubleSided":true,"name":"ile_de_paque_-_CleanUp_-_LowPoly_Material_u1_v1"},{"pbrMetallicRoughness":{"metallicFactor":0,"roughnessFactor":1,"baseColorTexture":{"index":0}},"doubleSided":true,"name":"ile_de_paque_-_CleanUp_-_LowPoly_Material_u1_v1"},{"pbrMetallicRoughness":{"metallicFactor":0,"roughnessFactor":1,"baseColorTexture":{"index":0}},"doubleSided":true,"name":"ile_de_paque_-_CleanUp_-_LowPoly_Material_u1_v1"},{"pbrMetallicRoughness":{"metallicFactor":0,"roughnessFactor":1,"baseColorTexture":{"index":0}},"doubleSided":true,"name":"ile_de_paque_-_CleanUp_-_LowPoly_Material_u1_v1"},{"pbrMetallicRoughness":{"metallicFactor":0,"roughnessFactor":1,"baseColorTexture":{"index":0}},"doubleSided":true,"name":"ile_de_paque_-_CleanUp_-_LowPoly_Material_u1_v1"},{"pbrMetallicRoughness":{"baseColorFactor":[0,0,1,1],"metallicFactor":0.5,"roughnessFactor":0.5}}],"textures":[{"sampler":0,"source":0}],"samplers":[{"magFilter":9729,"minFilter":9987}],"images":[{"mimeType":"image/jpeg","uri":"ile_de_paque_-_CleanUp_-_LowPoly_Material_u1_v1_baseColor.jpg"}],"meshes":[{"primitives":[{"mode":4,"attributes":{"COLOR_0":0,"NORMAL":1,"POSITION":2,"TEXCOORD_0":3},"indices":4,"material":0}]},{"primitives":[{"mode":4,"attributes":{"COLOR_0":5,"NORMAL":6,"POSITION":7,"TEXCOORD_0":8},"indices":9,"material":1}]},{"primitives":[{"mode":4,"attributes":{"COLOR_0":10,"NORMAL":11,"POSITION":12,"TEXCOORD_0":13},"indices":14,"material":2}]},{"primitives":[{"mode":4,"attributes":{"COLOR_0":15,"NORMAL":16,"POSITION":17,"TEXCOORD_0":18},"indices":19,"material":3}]},{"primitives":[{"mode":4,"attributes":{"COLOR_0":20,"NORMAL":21,"POSITION":22,"TEXCOORD_0":23},"indices":24,"material":4}]},{"primitives":[{"mode":4,"attributes":{"COLOR_0":25,"NORMAL":26,"POSITION":27,"TEXCOORD_0":28},"indices":29,"material":5}]},{"primitives":[{"mode":4,"attributes":{"POSITION":30},"indices":31,"material":6}]}],"extensionsUsed":["HUBS_components"]}